# xmcd CD database file
#
# Track frame offsets:
#	150
#	20662
#	38742
#	58412
#	79130
#	96952
#	114287
#	134990
#	155720
#	174430
#	194600
#	214912
#	235260
#	255787
#	275067
#	293527
#	311822
#	330045
#
# Disc length: 4648 seconds
#
# Revision: 0
# Processed by: cddbd v1.5.1PL0 Copyright (c) Steve Scherf et al.
# Submitted via: CDex 1.60beta1
#
DISCID=09122612
DTITLE=中森明菜 - 中森明菜コレクション 1982〜1991 [CD10)
DYEAR=1996
DGENRE=JPop
TTITLE0=I WANNA CHANCE
TTITLE1=POISON LIPS
TTITLE2=処女伝説
TTITLE3=FOGGY RELATION
TTITLE4=TATTOO
TTITLE5=小悪魔
TTITLE6=不思議
TTITLE7=Reversion
TTITLE8=Heartbreak
TTITLE9=抱きしめていて
TTITLE10=Femme Fatale
TTITLE11=I Know 孤独のせい
TTITLE12=La Liberte
TTITLE13=So Mad
TTITLE14=Paradise Lost
TTITLE15=Move Me
TTITLE16=Jive
TTITLE17=I MISSED "THE SHOCK"
EXTD=YEAR: 1996
EXTT0=
EXTT1=
EXTT2=
EXTT3=
EXTT4=
EXTT5=
EXTT6=
EXTT7=
EXTT8=
EXTT9=
EXTT10=
EXTT11=
EXTT12=
EXTT13=
EXTT14=
EXTT15=
EXTT16=
EXTT17=
PLAYORDER=
